<?xml version="1.0" standalone="no"?><!DOCTYPE svg PUBLIC "-//W3C//DTD SVG 1.1//EN" "http://www.w3.org/Graphics/SVG/1.1/DTD/svg11.dtd">
<svg class="cmx-canvas" width="270" height="390" version="1.1" xmlns="http://www.w3.org/2000/svg"
     viewBox="0 0 270 390"><defs><style type="text/css"><![CDATA[
@font-face { font-family: xkcd; src: url("http://comics-slack.herokuapp.com/static/fonts/xkcd.woff") font-weight: normal; font-style: normal; }
.cmx-path { fill: none; stroke-width: 2.5px; stroke-linecap: round; stroke-linejoin: round; }
.cmx-back { stroke: white; }
.cmx-back .cmx-text { shape-rendering: optimizeSpeed; text-rendering: optimizeSpeed; fill: none; stroke-opacity: 1; stroke-width: 8px; stroke-linecap: butt; stroke-linejoin: miter; }
.cmx-back .cmx-path { stroke-width: 6px; }
.cmx-front { stroke: black; }
.cmx-front .cmx-path { stroke-width: 3px; }
.cmx-front .cmx-text { stroke: none; }
.cmx-text-border .cmx-path { stroke: black; fill: white; stroke-width: 2px; }

* {
    font-family: "xkcd", sans-serif !important;
}
]]></style></defs><g transform="translate(10, 20)"><g transform="translate(0, 350) scale(1, -1)"><g class="cmx-layers"><g class="cmx-layer cmx-layer-2"><g class="cmx-entity-tree"><g class="cmx-back"><g class="cmx-entity cmx-label" transform="translate(0,346)"></g></g><g class="cmx-front"><g class="cmx-entity cmx-label" transform="translate(0,346)"></g></g></g><g class="cmx-entity-tree"><g class="cmx-back"><g class="cmx-entity cmx-drawing" transform="translate(0,31)"><g transform="translate(0,0)"><g><path class="cmx-path" d="M0,0L250,20"></path></g></g></g></g><g class="cmx-front"><g class="cmx-entity cmx-drawing" transform="translate(0,31)"><g transform="translate(0,0)"><g><path class="cmx-path" d="M0.02,-0.31L1.02,-0.19L2.02,-0.06L3.01,0.09L4.01,0.24L5,0.4L6,0.54L6.99,0.66L7.99,0.76L8.99,0.84L9.99,0.9L10.99,0.96L11.99,1.03L12.99,1.11L13.99,1.2L14.99,1.31L15.99,1.42L16.99,1.53L17.98,1.64L18.98,1.75L19.98,1.84L20.98,1.92L21.98,1.99L22.98,2.06L23.98,2.13L24.98,2.22L25.98,2.3L26.98,2.38L27.98,2.45L28.99,2.5L29.99,2.54L30.99,2.58L31.99,2.63L33,2.68L34,2.74L35,2.79L36,2.84L37.01,2.87L38.01,2.91L39.01,2.95L40.02,3L41.02,3.06L42.02,3.13L43.02,3.21L44.02,3.29L45.02,3.37L46.02,3.46L47.02,3.56L48.01,3.67L49.01,3.78L50.01,3.9L51.01,4.01L52,4.1L53.01,4.18L54.01,4.24L55.01,4.29L56.01,4.35L57.01,4.42L58.01,4.51L59.01,4.61L60.01,4.71L61,4.82L62,4.91L63,5L64,5.07L65.01,5.13L66.01,5.19L67.01,5.24L68.01,5.3L69.01,5.38L70.01,5.47L71.01,5.56L72.01,5.66L73.01,5.74L74.01,5.8L75.01,5.84L76.02,5.85L77.02,5.87L78.03,5.9L79.03,5.95L80.03,6.02L81.03,6.12L82.03,6.22L83.03,6.32L84.02,6.42L85.02,6.53L86.02,6.65L87.01,6.77L88.01,6.89L89.01,6.98L90.01,7.05L91.02,7.07L92.02,7.07L93.03,7.08L94.03,7.1L95.03,7.16L96.03,7.27L97.03,7.42L98.02,7.59L99.01,7.78L100,7.96L101,8.13L101.99,8.27L102.99,8.38L103.99,8.48L104.99,8.55L105.99,8.62L106.99,8.7L107.99,8.78L108.99,8.87L109.99,8.95L110.99,9.02L111.99,9.06L113,9.09L114,9.09L115.01,9.1L116.01,9.13L117.01,9.19L118.01,9.27L119.01,9.38L120.01,9.5L121.01,9.61L122,9.7L123.01,9.77L124.01,9.82L125.01,9.86L126.01,9.9L127.02,9.94L128.02,9.99L129.02,10.05L130.02,10.11L131.02,10.17L132.03,10.24L133.03,10.31L134.03,10.4L135.02,10.5L136.02,10.62L137.02,10.75L138.01,10.88L139.01,11L140.01,11.11L141.01,11.21L142.01,11.29L143.01,11.36L144.01,11.43L145.01,11.5L146.01,11.56L147.01,11.62L148.01,11.68L149.01,11.73L150.02,11.78L151.02,11.84L152.02,11.89L153.02,11.96L154.02,12.06L155.02,12.18L156.01,12.33L157,12.5L158,12.68L158.99,12.86L159.98,13.01L160.98,13.14L161.98,13.23L162.98,13.28L163.99,13.3L164.99,13.28L166,13.24L167.01,13.21L168.02,13.19L169.03,13.2L170.03,13.23L171.03,13.29L172.03,13.38L173.03,13.51L174.02,13.66L175.01,13.83L176.01,14.01L177,14.18L177.99,14.31L178.99,14.41L179.99,14.47L181,14.52L182,14.56L183,14.6L184.01,14.64L185.01,14.69L186.01,14.75L187.01,14.82L188.01,14.9L189.01,15.01L190.01,15.13L191,15.26L192,15.37L193,15.47L194,15.53L195,15.57L196.01,15.59L197.01,15.61L198.02,15.63L199.02,15.68L200.02,15.75L201.02,15.85L202.01,15.98L203.01,16.11L204.01,16.24L205,16.36L206,16.48L207,16.6L207.99,16.72L208.99,16.85L209.99,16.96L210.99,17.04L211.99,17.09L212.99,17.11L214,17.09L215.01,17.07L216.02,17.04L217.03,17.03L218.03,17.06L219.03,17.11L220.03,17.2L221.03,17.33L222.02,17.48L223.02,17.65L224.01,17.83L225,18L225.99,18.17L226.99,18.31L227.98,18.43L228.98,18.52L229.98,18.6L230.98,18.67L231.98,18.75L232.98,18.84L233.98,18.94L234.98,19.04L235.98,19.14L236.98,19.24L237.98,19.33L238.98,19.43L239.97,19.53L240.97,19.63L241.97,19.72L242.97,19.81L243.97,19.88L244.97,19.93L245.98,19.97L246.98,20L247.98,20.03L248.99,20.07L249.99,20.1" style="stroke: black;"></path></g></g></g></g></g><g class="cmx-entity-tree"><g class="cmx-back"><g class="cmx-entity cmx-actor" transform="translate(71,19) rotate(-2)"><g transform="translate(-11,99)rotate(-18)"><g transform="translate(0, 16)"><path class="cmx-path" d="M0,-16L6.74,-14.19L10.84,-11.37L13.85,-7.41L15.48,-2.7L15.55,2.28L14.05,7.03L11.15,11.07L7.13,14L2.39,15.53L-2.59,15.5L-7.31,13.91L-11.3,10.92L-14.15,6.84L-15.57,2.07L-15.44,-2.91L-13.75,-7.59L-10.69,-11.52L-6.55,-14.28L0,-16"></path></g></g><g><path class="cmx-path" d="M-11,99L-11,59"></path></g><g><path class="cmx-path" d="M-11,99L-18,79L-18,59"></path></g><g><path class="cmx-path" d="M-11,99L-6,79L-1,59"></path></g><g><path class="cmx-path" d="M-11,59L-16,34L-21,9"></path></g><g><path class="cmx-path" d="M-11,59L-6,34L-1,9"></path></g><g class="cmx-entity cmx-bubble" transform="translate(-5,117)translate(9,11)"><g><path class="cmx-path" d="M-20,10L-33.93,21.31L-38.41,27.91L-40.11,33.63L-39.76,40.59L-14.11,90.1L-11.29,110.81L-18.5,139.74L-21,145"></path></g></g></g></g><g class="cmx-front"><g class="cmx-entity cmx-actor" transform="translate(71,19) rotate(-2)"><g transform="translate(-11,99)rotate(-18)"><g transform="translate(0, 16)"><path class="cmx-path" d="M-0.06,-15.79L1.07,-15.51L2.2,-15.24L3.34,-14.97L4.47,-14.71L5.6,-14.46L6.74,-14.19L6.75,-14.21L7.78,-13.52L8.8,-12.8L9.81,-12.08L10.82,-11.34L10.78,-11.32L11.5,-10.31L12.23,-9.31L12.99,-8.32L13.76,-7.34L13.78,-7.39L14.24,-6.23L14.69,-5.07L15.12,-3.9L15.53,-2.72L15.52,-2.7L15.5,-1.46L15.47,-0.21L15.43,1.03L15.4,2.28L15.37,2.22L14.95,3.39L14.54,4.57L14.13,5.74L13.72,6.92L13.76,6.81L13.03,7.83L12.33,8.86L11.65,9.9L10.99,10.96L11.08,10.98L10.12,11.77L9.15,12.56L8.18,13.34L7.2,14.1L7.18,14.16L6,14.58L4.83,15.01L3.67,15.44L2.5,15.88L2.38,15.94L1.14,15.97L-0.11,15.98L-1.35,15.96L-2.6,15.9L-2.69,15.79L-3.84,15.28L-4.97,14.76L-6.11,14.23L-7.25,13.73L-7.15,13.69L-8.12,12.91L-9.12,12.16L-10.13,11.44L-11.15,10.73L-11.14,10.81L-11.9,9.82L-12.65,8.83L-13.39,7.83L-14.11,6.81L-14.09,6.82L-14.41,5.62L-14.7,4.4L-14.99,3.19L-15.29,1.98L-15.24,2.08L-15.18,0.83L-15.14,-0.41L-15.11,-1.66L-15.08,-2.9L-15.1,-2.79L-14.68,-3.96L-14.27,-5.13L-13.86,-6.31L-13.48,-7.49L-13.58,-7.46L-12.88,-8.49L-12.2,-9.54L-11.52,-10.59L-10.84,-11.63L-10.83,-11.74L-9.82,-12.46L-8.79,-13.16L-7.75,-13.84L-6.69,-14.5L-6.6,-14.48L-5.49,-14.72L-4.39,-14.96L-3.3,-15.23L-2.2,-15.5L-1.11,-15.8L-0.03,-16.1"></path></g></g><g><path class="cmx-path" d="M-11.03,99L-10.98,97.97L-10.95,96.95L-10.92,95.92L-10.9,94.9L-10.89,93.87L-10.87,92.85L-10.83,91.82L-10.79,90.79L-10.74,89.77L-10.69,88.74L-10.64,87.72L-10.62,86.69L-10.63,85.67L-10.66,84.64L-10.72,83.62L-10.78,82.59L-10.84,81.56L-10.89,80.54L-10.92,79.51L-10.94,78.49L-10.97,77.46L-11,76.44L-11.04,75.41L-11.09,74.38L-11.15,73.36L-11.21,72.33L-11.27,71.31L-11.32,70.28L-11.36,69.26L-11.37,68.23L-11.35,67.21L-11.29,66.18L-11.2,65.15L-11.09,64.13L-10.98,63.1L-10.89,62.08L-10.81,61.05L-10.75,60.03L-10.72,59"></path></g><g><path class="cmx-path" d="M-11.05,99.02L-11.37,98.01L-11.68,96.99L-11.97,95.97L-12.27,94.95L-12.57,93.94L-12.9,92.93L-13.25,91.93L-13.62,90.94L-14,89.95L-14.38,88.96L-14.74,87.96L-15.08,86.96L-15.43,85.96L-15.79,84.96L-16.17,83.97L-16.59,83L-17.02,82.02L-17.44,81.05L-17.85,80.07L-18.22,79.08L-18.22,79L-18.17,77.95L-18.12,76.89L-18.07,75.84L-18.05,74.79L-18.06,73.74L-18.1,72.68L-18.16,71.63L-18.22,70.58L-18.26,69.53L-18.28,68.47L-18.26,67.42L-18.21,66.37L-18.14,65.32L-18.07,64.26L-18.02,63.21L-17.97,62.16L-17.94,61.11L-17.93,60.05L-17.92,59"></path></g><g><path class="cmx-path" d="M-10.7,99.07L-10.41,98.03L-10.13,96.98L-9.87,95.93L-9.63,94.87L-9.41,93.81L-9.2,92.74L-8.99,91.67L-8.77,90.61L-8.53,89.55L-8.28,88.5L-8.02,87.44L-7.77,86.39L-7.52,85.33L-7.3,84.27L-7.08,83.2L-6.85,82.14L-6.6,81.09L-6.32,80.04L-6.01,79L-5.95,79.01L-5.63,78.03L-5.32,77.04L-5.02,76.06L-4.73,75.07L-4.47,74.07L-4.24,73.07L-4.03,72.06L-3.83,71.04L-3.64,70.03L-3.45,69.01L-3.25,68L-3.05,66.99L-2.83,65.98L-2.6,64.98L-2.37,63.97L-2.15,62.96L-1.94,61.95L-1.75,60.94L-1.56,59.92L-1.38,58.91"></path></g><g><path class="cmx-path" d="M-10.77,58.95L-11.02,57.96L-11.26,56.97L-11.51,55.98L-11.77,54.99L-12.02,54L-12.26,53.01L-12.49,52.02L-12.71,51.02L-12.92,50.02L-13.12,49.02L-13.32,48.02L-13.51,47.02L-13.7,46.02L-13.89,45.02L-14.07,44.01L-14.25,43.01L-14.43,42.01L-14.6,41L-14.78,40L-14.96,38.99L-15.16,37.99L-15.38,37L-15.6,36L-15.82,35L-16.03,34.01L-16.02,34L-16.19,33L-16.34,31.99L-16.48,30.98L-16.62,29.96L-16.77,28.95L-16.94,27.95L-17.13,26.95L-17.36,25.95L-17.62,24.96L-17.9,23.98L-18.18,23L-18.46,22.01L-18.73,21.03L-18.98,20.04L-19.23,19.05L-19.46,18.05L-19.67,17.05L-19.87,16.05L-20.07,15.05L-20.25,14.05L-20.43,13.05L-20.62,12.04L-20.81,11.04L-21.01,10.04L-21.21,9.04"></path></g><g><path class="cmx-path" d="M-10.85,59.03L-10.65,58.03L-10.46,57.03L-10.26,56.03L-10.06,55.03L-9.85,54.03L-9.64,53.03L-9.42,52.04L-9.22,51.04L-9.02,50.04L-8.83,49.03L-8.65,48.03L-8.47,47.03L-8.3,46.02L-8.12,45.02L-7.93,44.01L-7.73,43.01L-7.51,42.02L-7.28,41.02L-7.05,40.03L-6.82,39.04L-6.61,38.04L-6.42,37.04L-6.25,36.03L-6.1,35.02L-5.97,34.01L-6.05,33.99L-5.93,32.97L-5.79,31.96L-5.64,30.95L-5.46,29.95L-5.25,28.95L-5.02,27.96L-4.77,26.97L-4.51,25.98L-4.26,24.99L-4.01,24L-3.76,23.01L-3.52,22.02L-3.29,21.02L-3.07,20.03L-2.86,19.03L-2.68,18.02L-2.51,17.02L-2.36,16.01L-2.22,15L-2.07,13.99L-1.92,12.98L-1.74,11.97L-1.56,10.97L-1.35,9.97L-1.14,8.97"></path></g><g class="cmx-entity cmx-bubble" transform="translate(-5,117)translate(9,11)"><g><path class="cmx-path" d="M-19.85,10.18L-20.71,10.81L-21.55,11.44L-22.38,12.09L-23.2,12.75L-24.01,13.43L-24.81,14.13L-25.6,14.82L-26.4,15.52L-27.2,16.2L-28.03,16.86L-28.86,17.51L-29.7,18.15L-30.54,18.79L-31.38,19.43L-32.21,20.09L-33.03,20.74L-33.86,21.4L-33.84,21.37L-34.5,22.3L-35.17,23.22L-35.84,24.14L-36.52,25.06L-37.19,25.98L-37.85,26.91L-38.47,27.87L-38.41,27.9L-38.66,29.08L-38.9,30.26L-39.14,31.43L-39.42,32.59L-39.73,33.75L-39.73,33.61L-39.71,34.78L-39.71,35.94L-39.73,37.1L-39.76,38.26L-39.79,39.43L-39.81,40.59L-39.87,40.65L-39.45,41.57L-39,42.48L-38.52,43.38L-38.03,44.26L-37.52,45.14L-37.01,46.01L-36.5,46.9L-36.02,47.79L-35.55,48.69L-35.1,49.6L-34.66,50.51L-34.22,51.42L-33.79,52.34L-33.35,53.26L-32.92,54.17L-32.48,55.09L-32.05,56.01L-31.62,56.93L-31.19,57.85L-30.74,58.76L-30.29,59.66L-29.82,60.56L-29.35,61.46L-28.86,62.35L-28.37,63.24L-27.86,64.11L-27.35,64.99L-26.83,65.87L-26.32,66.74L-25.83,67.63L-25.34,68.52L-24.88,69.42L-24.42,70.33L-23.98,71.24L-23.54,72.15L-23.1,73.07L-22.66,73.98L-22.21,74.89L-21.75,75.79L-21.28,76.69L-20.8,77.58L-20.31,78.47L-19.81,79.36L-19.31,80.24L-18.83,81.13L-18.36,82.03L-17.9,82.93L-17.44,83.84L-16.97,84.74L-16.48,85.62L-15.97,86.5L-15.44,87.37L-14.91,88.24L-14.38,89.1L-13.87,89.98L-13.8,90.06L-13.63,91.09L-13.47,92.12L-13.32,93.16L-13.19,94.2L-13.06,95.23L-12.93,96.27L-12.83,97.31L-12.74,98.35L-12.68,99.4L-12.63,100.45L-12.61,101.5L-12.58,102.55L-12.54,103.6L-12.48,104.64L-12.38,105.69L-12.25,106.72L-12.09,107.75L-11.91,108.78L-11.71,109.81L-11.49,110.84L-11.4,110.78L-11.56,111.8L-11.72,112.82L-11.89,113.84L-12.11,114.84L-12.36,115.84L-12.66,116.83L-12.98,117.81L-13.31,118.78L-13.65,119.76L-13.97,120.74L-14.27,121.72L-14.55,122.71L-14.79,123.71L-15.01,124.72L-15.19,125.73L-15.35,126.75L-15.5,127.77L-15.67,128.79L-15.86,129.8L-16.06,130.81L-16.26,131.82L-16.47,132.83L-16.69,133.84L-16.92,134.84L-17.17,135.83L-17.44,136.83L-17.74,137.81L-18.05,138.8L-18.35,139.78L-18.4,139.79L-18.93,140.83L-19.45,141.87L-19.95,142.92L-20.45,143.97L-20.95,145.03" style="stroke-width: 2;"></path></g></g></g></g></g><g class="cmx-entity-tree"><g class="cmx-back"><g class="cmx-entity cmx-actor" transform="translate(159,15)"><g transform="translate(28,91)rotate(-6)"><g transform="translate(0, 16)"><path class="cmx-path" d="M0,-16L6.74,-14.19L10.84,-11.37L13.85,-7.41L15.48,-2.7L15.55,2.28L14.05,7.03L11.15,11.07L7.13,14L2.39,15.53L-2.59,15.5L-7.31,13.91L-11.3,10.92L-14.15,6.84L-15.57,2.07L-15.44,-2.91L-13.75,-7.59L-10.69,-11.52L-6.55,-14.28L0,-16"></path></g></g><g><path class="cmx-path" d="M28,91L28,51"></path></g><g><path class="cmx-path" d="M28,91L23,71L18,51"></path></g><g><path class="cmx-path" d="M28,91L38,71L38,51"></path></g><g><path class="cmx-path" d="M28,51L18,31L18,1"></path></g><g><path class="cmx-path" d="M28,51L33,26L38,1"></path></g><g class="cmx-entity cmx-bubble" transform="translate(30,109)translate(-2,-9)"><g><path class="cmx-path" d="M-14,24L-18.44,36.18L-18.69,40.16L-18.31,42.12L-17.45,43.92L-16.09,45.37L-13.48,46.81L5.24,49.79L7.96,51.02L9.51,52.29L10.66,53.92L11.52,56.78L10.37,65.64L8,72"></path></g></g></g></g><g class="cmx-front"><g class="cmx-entity cmx-actor" transform="translate(159,15)"><g transform="translate(28,91)rotate(-6)"><g transform="translate(0, 16)"><path class="cmx-path" d="M0.04,-16.15L1.16,-15.85L2.28,-15.53L3.39,-15.19L4.5,-14.83L5.6,-14.46L6.7,-14.07L6.62,-14.03L7.63,-13.29L8.65,-12.59L9.71,-11.93L10.8,-11.32L10.89,-11.41L11.76,-10.51L12.61,-9.59L13.43,-8.65L14.21,-7.68L14.27,-7.55L14.62,-6.36L14.95,-5.16L15.27,-3.95L15.57,-2.73L15.46,-2.7L15.38,-1.46L15.33,-0.21L15.3,1.03L15.32,2.28L15.35,2.22L15.03,3.42L14.71,4.62L14.38,5.82L14.03,7.02L14.03,7.01L13.3,8.01L12.56,9.02L11.84,10.03L11.13,11.06L11.17,11.1L10.21,11.89L9.25,12.68L8.28,13.47L7.3,14.24L7.22,14.31L6.04,14.69L4.85,15.06L3.65,15.41L2.46,15.75L2.38,15.71L1.14,15.67L-0.1,15.63L-1.35,15.59L-2.59,15.56L-2.6,15.53L-3.78,15.11L-4.95,14.69L-6.12,14.27L-7.3,13.86L-7.28,13.87L-8.29,13.13L-9.3,12.41L-10.31,11.69L-11.33,10.97L-11.38,10.98L-12.12,9.98L-12.86,8.98L-13.6,7.97L-14.33,6.97L-14.37,6.9L-14.73,5.71L-15.07,4.52L-15.41,3.32L-15.75,2.12L-15.76,2.06L-15.74,0.82L-15.73,-0.43L-15.71,-1.67L-15.67,-2.92L-15.63,-2.98L-15.18,-4.14L-14.72,-5.3L-14.29,-6.46L-13.87,-7.64L-13.86,-7.68L-13.11,-8.67L-12.36,-9.66L-11.6,-10.65L-10.85,-11.64L-10.81,-11.69L-9.77,-12.39L-8.72,-13.06L-7.66,-13.71L-6.59,-14.35L-6.55,-14.29L-5.44,-14.52L-4.34,-14.76L-3.24,-15.02L-2.15,-15.31L-1.06,-15.61L0.02,-15.92"></path></g></g><g><path class="cmx-path" d="M28.16,91L28.13,89.97L28.08,88.95L28.03,87.92L27.96,86.9L27.91,85.87L27.87,84.85L27.86,83.82L27.89,82.79L27.94,81.77L28.02,80.74L28.1,79.72L28.17,78.69L28.23,77.67L28.27,76.64L28.3,75.62L28.3,74.59L28.29,73.56L28.27,72.54L28.24,71.51L28.22,70.49L28.2,69.46L28.17,68.44L28.12,67.41L28.06,66.38L28,65.36L27.94,64.33L27.91,63.31L27.93,62.28L27.98,61.26L28.07,60.23L28.17,59.21L28.26,58.18L28.33,57.15L28.38,56.13L28.4,55.1L28.4,54.08L28.39,53.05L28.37,52.03L28.35,51"></path></g><g><path class="cmx-path" d="M28.47,90.88L28.23,89.88L27.97,88.88L27.69,87.89L27.37,86.91L27.03,85.93L26.66,84.96L26.29,83.99L25.94,83.01L25.63,82.03L25.37,81.03L25.15,80.02L24.97,79.01L24.79,77.99L24.61,76.97L24.39,75.96L24.14,74.96L23.86,73.97L23.56,72.99L23.24,72L22.93,71.02L22.88,71.03L22.6,69.98L22.34,68.93L22.12,67.86L21.92,66.8L21.72,65.73L21.51,64.66L21.28,63.6L21.01,62.55L20.71,61.51L20.39,60.47L20.05,59.44L19.7,58.4L19.35,57.37L19,56.34L18.66,55.31L18.32,54.27L18,53.24L17.69,52.2L17.39,51.15"></path></g><g><path class="cmx-path" d="M27.69,90.85L28.24,89.93L28.79,89.01L29.33,88.09L29.86,87.17L30.39,86.24L30.9,85.31L31.4,84.37L31.89,83.42L32.39,82.48L32.88,81.53L33.37,80.59L33.86,79.65L34.35,78.7L34.83,77.75L35.3,76.8L35.77,75.84L36.24,74.88L36.7,73.92L37.15,72.96L37.58,71.98L38,71L37.92,71L37.85,69.95L37.8,68.89L37.76,67.84L37.75,66.79L37.74,65.74L37.74,64.68L37.74,63.63L37.76,62.58L37.79,61.53L37.85,60.47L37.91,59.42L37.98,58.37L38.02,57.32L38.05,56.26L38.06,55.21L38.05,54.16L38.03,53.11L38,52.05L37.98,51"></path></g><g><path class="cmx-path" d="M27.88,51.06L27.43,50.09L26.99,49.12L26.55,48.16L26.1,47.19L25.66,46.22L25.2,45.26L24.74,44.3L24.27,43.34L23.8,42.39L23.32,41.44L22.84,40.49L22.36,39.54L21.87,38.59L21.38,37.64L20.88,36.7L20.35,35.78L19.81,34.86L19.25,33.95L18.7,33.03L18.17,32.11L17.68,31.16L17.67,31L17.74,29.97L17.82,28.93L17.9,27.9L17.96,26.86L17.99,25.83L17.99,24.79L17.97,23.76L17.96,22.72L17.96,21.69L17.96,20.66L17.98,19.62L17.99,18.59L18,17.55L18.01,16.52L18.04,15.48L18.09,14.45L18.18,13.41L18.29,12.38L18.41,11.34L18.53,10.31L18.64,9.28L18.72,8.24L18.75,7.21L18.76,6.17L18.73,5.14L18.67,4.1L18.6,3.07L18.53,2.03L18.46,1"></path></g><g><path class="cmx-path" d="M28.39,51.08L28.48,50.06L28.58,49.04L28.7,48.02L28.84,47.01L29.02,46L29.2,45L29.39,44L29.57,42.99L29.74,41.99L29.89,40.98L30.06,39.97L30.24,38.97L30.45,37.97L30.68,36.98L30.94,35.99L31.2,35L31.47,34.01L31.73,33.03L31.97,32.03L32.21,31.04L32.45,30.05L32.68,29.06L32.92,28.06L33.13,27.07L33.32,26.06L33.26,26.05L33.37,25.03L33.48,24.02L33.59,23L33.75,21.99L33.94,20.99L34.17,19.99L34.4,19L34.62,18L34.82,17L35.02,16L35.2,15L35.39,14L35.58,13L35.76,11.99L35.93,10.99L36.09,9.98L36.25,8.97L36.41,7.96L36.57,6.95L36.75,5.95L36.95,4.95L37.16,3.95L37.37,2.95L37.59,1.96L37.81,0.96"></path></g><g class="cmx-entity cmx-bubble" transform="translate(30,109)translate(-2,-9)"><g><path class="cmx-path" d="M-13.66,24.12L-14.07,25.13L-14.48,26.12L-14.91,27.12L-15.33,28.11L-15.76,29.11L-16.19,30.1L-16.62,31.09L-17.03,32.09L-17.43,33.1L-17.8,34.11L-18.15,35.13L-18.49,36.16L-18.47,36.18L-18.53,37.5L-18.62,38.83L-18.71,40.16L-18.73,40.17L-18.55,41.15L-18.33,42.12L-18.29,42.11L-17.79,42.97L-17.29,43.84L-17.27,43.75L-16.56,44.45L-15.87,45.16L-15.95,45.11L-14.66,45.86L-13.36,46.61L-13.44,46.61L-12.41,46.8L-11.37,46.99L-10.33,47.16L-9.29,47.32L-8.25,47.48L-7.21,47.62L-6.16,47.75L-5.12,47.89L-4.08,48.02L-3.03,48.17L-1.99,48.34L-0.96,48.52L0.08,48.71L1.11,48.9L2.15,49.09L3.19,49.29L4.22,49.49L5.25,49.7L5.25,49.76L6.58,50.45L7.91,51.13L7.85,51.17L8.59,51.83L9.35,52.48L9.32,52.42L9.93,53.21L10.55,53.99L10.61,53.93L11.12,55.33L11.63,56.74L11.69,56.8L11.59,57.91L11.47,59.02L11.34,60.13L11.19,61.24L11.06,62.35L10.94,63.46L10.84,64.57L10.75,65.69L10.78,65.79L10.43,66.87L10.06,67.93L9.66,68.99L9.24,70.05L8.81,71.09L8.37,72.14" style="stroke-width: 2;"></path></g></g></g></g></g></g><g class="cmx-layer cmx-layer-1"><g class="cmx-entity-tree"><g class="cmx-back"><g class="cmx-entity cmx-label" transform="translate(0,346)"></g></g><g class="cmx-front"><g class="cmx-entity cmx-label" transform="translate(0,346)"></g></g></g><g class="cmx-entity-tree"><g class="cmx-back"><g class="cmx-entity cmx-drawing" transform="translate(0,31)"></g></g><g class="cmx-front"><g class="cmx-entity cmx-drawing" transform="translate(0,31)"></g></g></g><g class="cmx-entity-tree"><g class="cmx-back"><g class="cmx-entity cmx-actor" transform="translate(71,19) rotate(-2)"><g class="cmx-entity cmx-bubble" transform="translate(-5,117)translate(9,11)"><g transform="translate ( -73,109)"><g><g transform="scale(1, -1)"><text class="cmx-text">
                
                    
                        <tspan x="0" y="-3em">how are you?</tspan>
                    
                
                    
                        <tspan x="0" y="-1em">ping</tspan>
                    
                
                    
                        <tspan x="0" y="1em">answer me</tspan>
                    
                
                    
                
                    
                
            </text></g></g></g></g></g></g><g class="cmx-front"><g class="cmx-entity cmx-actor" transform="translate(71,19) rotate(-2)"><g class="cmx-entity cmx-bubble" transform="translate(-5,117)translate(9,11)"><g transform="translate ( -73,109)"><g><g transform="scale(1, -1)"><text class="cmx-text">
                
                    
                        <tspan x="0" y="-3em">how are you?</tspan>
                    
                
                    
                        <tspan x="0" y="-1em">ping</tspan>
                    
                
                    
                        <tspan x="0" y="1em">answer me</tspan>
                    
                
                    
                
                    
                
            </text></g></g></g></g></g></g></g><g class="cmx-entity-tree"><g class="cmx-back"><g class="cmx-entity cmx-actor" transform="translate(159,15)"><g class="cmx-entity cmx-bubble" transform="translate(30,109)translate(-2,-9)"><g transform="translate ( -35,93)"><g><g transform="scale(1, -1)"><text class="cmx-text">
                
                    
                
                    
                
                    
                
                    
                        <tspan x="0" y="1em">hey</tspan>
                    
                
                    
                        <tspan x="0" y="3em">whatsup?</tspan>
                    
                
            </text></g></g></g></g></g></g><g class="cmx-front"><g class="cmx-entity cmx-actor" transform="translate(159,15)"><g class="cmx-entity cmx-bubble" transform="translate(30,109)translate(-2,-9)"><g transform="translate ( -35,93)"><g><g transform="scale(1, -1)"><text class="cmx-text">
                
                    
                
                    
                
                    
                
                    
                        <tspan x="0" y="1em">hey</tspan>
                    
                
                    
                        <tspan x="0" y="3em">whatsup?</tspan>
                    
                
            </text></g></g></g></g></g></g></g></g><g class="cmx-layer cmx-layer-frame"><g class="cmx-pseudo-entity cmx-frame"><g class="cmx-back"><g><path class="cmx-path" d="M0,0L250,0L250,350L0,350L0,0"></path></g></g><g class="cmx-front"><g><path class="cmx-path" d="M0,-0.17L1,-0.11L2.01,-0.04L3.01,0.02L4.02,0.07L5.02,0.1L6.02,0.1L7.03,0.07L8.03,0L9.04,-0.07L10.04,-0.14L11.04,-0.19L12.05,-0.22L13.05,-0.22L14.06,-0.21L15.06,-0.18L16.06,-0.16L17.07,-0.14L18.07,-0.13L19.08,-0.13L20.08,-0.14L21.08,-0.16L22.09,-0.18L23.09,-0.2L24.1,-0.21L25.1,-0.21L26.1,-0.2L27.11,-0.19L28.11,-0.17L29.12,-0.17L30.12,-0.16L31.12,-0.16L32.13,-0.15L33.13,-0.14L34.14,-0.13L35.14,-0.14L36.14,-0.17L37.15,-0.21L38.15,-0.25L39.16,-0.28L40.16,-0.27L41.16,-0.23L42.17,-0.15L43.17,-0.06L44.18,0.03L45.18,0.1L46.18,0.15L47.19,0.16L48.19,0.14L49.2,0.1L50.2,0.05L51.2,-0.01L52.21,-0.05L53.21,-0.07L54.22,-0.07L55.22,-0.05L56.22,-0.02L57.23,0.02L58.23,0.05L59.24,0.07L60.24,0.07L61.24,0.07L62.25,0.08L63.25,0.09L64.26,0.11L65.26,0.12L66.27,0.13L67.27,0.12L68.27,0.08L69.28,0.03L70.28,-0.03L71.29,-0.08L72.29,-0.11L73.29,-0.13L74.3,-0.15L75.3,-0.17L76.31,-0.22L77.31,-0.26L78.31,-0.29L79.32,-0.3L80.32,-0.27L81.33,-0.2L82.33,-0.13L83.33,-0.05L84.34,0.01L85.34,0.05L86.35,0.07L87.35,0.06L88.35,0.03L89.36,-0.02L90.36,-0.08L91.37,-0.14L92.37,-0.18L93.37,-0.19L94.38,-0.17L95.38,-0.12L96.39,-0.04L97.39,0.05L98.39,0.15L99.4,0.25L100.4,0.34L101.41,0.42L102.41,0.47L103.41,0.49L104.42,0.46L105.42,0.4L106.43,0.31L107.43,0.21L108.43,0.11L109.44,0.03L110.44,-0.03L111.45,-0.09L112.45,-0.13L113.45,-0.16L114.46,-0.17L115.46,-0.17L116.47,-0.15L117.47,-0.11L118.47,-0.08L119.48,-0.06L120.48,-0.06L121.49,-0.09L122.49,-0.13L123.49,-0.17L124.5,-0.21L125.5,-0.24L126.51,-0.25L127.51,-0.26L128.51,-0.27L129.52,-0.26L130.52,-0.24L131.53,-0.2L132.53,-0.14L133.53,-0.07L134.54,-0.01L135.54,0.03L136.55,0.04L137.55,0.04L138.55,0.02L139.56,0L140.56,-0.01L141.57,0L142.57,0.02L143.57,0.07L144.58,0.13L145.58,0.22L146.59,0.3L147.59,0.35L148.59,0.36L149.6,0.32L150.6,0.23L151.61,0.12L152.61,0.01L153.61,-0.08L154.62,-0.15L155.62,-0.2L156.63,-0.22L157.63,-0.23L158.63,-0.21L159.64,-0.18L160.64,-0.15L161.65,-0.12L162.65,-0.09L163.65,-0.07L164.66,-0.04L165.66,-0.02L166.67,-0.01L167.67,0L168.67,0L169.68,-0.01L170.68,-0.03L171.69,-0.04L172.69,-0.04L173.69,-0.04L174.7,-0.04L175.7,-0.03L176.71,-0.02L177.71,-0.01L178.71,0.01L179.72,0.03L180.72,0.06L181.73,0.1L182.73,0.14L183.73,0.18L184.74,0.21L185.74,0.24L186.75,0.27L187.75,0.29L188.76,0.31L189.76,0.31L190.76,0.3L191.77,0.28L192.77,0.26L193.78,0.23L194.78,0.21L195.78,0.2L196.79,0.21L197.79,0.23L198.8,0.25L199.8,0.28L200.8,0.3L201.81,0.32L202.81,0.33L203.82,0.33L204.82,0.31L205.82,0.27L206.83,0.2L207.83,0.12L208.84,0.03L209.84,-0.03L210.84,-0.07L211.85,-0.08L212.85,-0.08L213.86,-0.07L214.86,-0.07L215.86,-0.08L216.87,-0.08L217.87,-0.08L218.88,-0.07L219.88,-0.04L220.88,0L221.89,0.04L222.89,0.07L223.9,0.1L224.9,0.11L225.9,0.11L226.91,0.08L227.91,0.04L228.92,-0.02L229.92,-0.09L230.92,-0.15L231.93,-0.2L232.93,-0.22L233.94,-0.21L234.94,-0.18L235.94,-0.14L236.95,-0.12L237.95,-0.1L238.96,-0.08L239.96,-0.07L240.96,-0.04L241.97,-0.01L242.97,0.04L243.98,0.09L244.98,0.14L245.98,0.19L246.99,0.22L247.99,0.24L249,0.26L250,0.26L249.75,0L249.79,1L249.83,2.01L249.88,3.01L249.92,4.01L249.96,5.01L249.97,6.02L249.97,7.02L249.96,8.02L249.94,9.03L249.92,10.03L249.91,11.03L249.9,12.03L249.9,13.04L249.92,14.04L249.95,15.04L249.98,16.05L250.02,17.05L250.05,18.05L250.07,19.05L250.1,20.06L250.12,21.06L250.15,22.06L250.19,23.07L250.25,24.07L250.29,25.07L250.32,26.07L250.32,27.08L250.27,28.08L250.2,29.08L250.12,30.09L250.05,31.09L250.02,32.09L250.01,33.09L250.02,34.1L250.03,35.1L250.05,36.1L250.06,37.11L250.05,38.11L250.04,39.11L250.01,40.11L249.96,41.12L249.91,42.12L249.86,43.12L249.81,44.13L249.79,45.13L249.79,46.13L249.81,47.13L249.85,48.14L249.88,49.14L249.9,50.14L249.88,51.15L249.83,52.15L249.77,53.15L249.69,54.15L249.63,55.16L249.58,56.16L249.57,57.16L249.58,58.17L249.62,59.17L249.67,60.17L249.74,61.17L249.82,62.18L249.9,63.18L249.96,64.18L250.01,65.19L250.02,66.19L250,67.19L249.95,68.19L249.88,69.2L249.81,70.2L249.77,71.2L249.75,72.21L249.76,73.21L249.78,74.21L249.81,75.21L249.85,76.22L249.89,77.22L249.93,78.22L249.99,79.23L250.05,80.23L250.13,81.23L250.2,82.23L250.25,83.24L250.28,84.24L250.28,85.24L250.23,86.25L250.16,87.25L250.07,88.25L249.97,89.26L249.86,90.26L249.76,91.26L249.66,92.26L249.59,93.27L249.55,94.27L249.55,95.27L249.59,96.28L249.67,97.28L249.76,98.28L249.84,99.28L249.92,100.29L249.96,101.29L249.97,102.29L249.96,103.3L249.92,104.3L249.88,105.3L249.85,106.3L249.85,107.31L249.88,108.31L249.94,109.31L250.01,110.32L250.08,111.32L250.13,112.32L250.16,113.32L250.17,114.33L250.18,115.33L250.18,116.33L250.17,117.34L250.14,118.34L250.11,119.34L250.06,120.34L250,121.35L249.94,122.35L249.88,123.35L249.83,124.36L249.79,125.36L249.77,126.36L249.78,127.36L249.8,128.37L249.85,129.37L249.91,130.37L249.96,131.38L249.99,132.38L249.98,133.38L249.94,134.38L249.9,135.39L249.86,136.39L249.86,137.39L249.89,138.4L249.95,139.4L250.02,140.4L250.08,141.4L250.13,142.41L250.16,143.41L250.18,144.41L250.19,145.42L250.19,146.42L250.19,147.42L250.2,148.42L250.21,149.43L250.23,150.43L250.25,151.43L250.26,152.44L250.26,153.44L250.25,154.44L250.23,155.44L250.21,156.45L250.2,157.45L250.19,158.45L250.18,159.46L250.16,160.46L250.12,161.46L250.09,162.46L250.05,163.47L250.03,164.47L250.02,165.47L250.04,166.48L250.08,167.48L250.15,168.48L250.23,169.48L250.32,170.49L250.39,171.49L250.43,172.49L250.44,173.5L250.41,174.5L250.36,175.5L250.29,176.5L250.21,177.51L250.12,178.51L250.05,179.51L249.99,180.52L249.95,181.52L249.92,182.52L249.91,183.52L249.9,184.53L249.89,185.53L249.87,186.53L249.84,187.54L249.82,188.54L249.8,189.54L249.79,190.54L249.78,191.55L249.78,192.55L249.79,193.55L249.81,194.56L249.85,195.56L249.89,196.56L249.94,197.56L249.98,198.57L250,199.57L250.02,200.57L250.02,201.58L250.02,202.58L250.02,203.58L250.02,204.58L250.01,205.59L249.99,206.59L249.95,207.59L249.9,208.6L249.84,209.6L249.79,210.6L249.75,211.6L249.74,212.61L249.78,213.61L249.84,214.61L249.93,215.62L250.02,216.62L250.09,217.62L250.11,218.62L250.09,219.63L250.03,220.63L249.94,221.63L249.84,222.64L249.75,223.64L249.69,224.64L249.66,225.64L249.66,226.65L249.68,227.65L249.73,228.65L249.8,229.66L249.87,230.66L249.93,231.66L249.98,232.66L250.02,233.67L250.04,234.67L250.04,235.67L250.04,236.68L250.02,237.68L249.99,238.68L249.95,239.68L249.89,240.69L249.83,241.69L249.76,242.69L249.71,243.7L249.67,244.7L249.65,245.7L249.66,246.7L249.69,247.71L249.72,248.71L249.75,249.71L249.77,250.72L249.75,251.72L249.72,252.72L249.68,253.72L249.65,254.73L249.64,255.73L249.65,256.73L249.7,257.74L249.77,258.74L249.85,259.74L249.93,260.74L249.97,261.75L249.99,262.75L249.98,263.75L249.96,264.76L249.95,265.76L249.95,266.76L249.97,267.77L249.97,268.77L249.97,269.77L249.96,270.77L249.96,271.78L249.98,272.78L250.03,273.78L250.12,274.79L250.21,275.79L250.3,276.79L250.35,277.79L250.37,278.8L250.36,279.8L250.32,280.8L250.28,281.81L250.24,282.81L250.22,283.81L250.21,284.81L250.22,285.82L250.22,286.82L250.2,287.82L250.15,288.83L250.07,289.83L249.99,290.83L249.92,291.83L249.88,292.84L249.88,293.84L249.91,294.84L249.96,295.85L250.02,296.85L250.08,297.85L250.13,298.85L250.17,299.86L250.21,300.86L250.23,301.86L250.23,302.87L250.22,303.87L250.2,304.87L250.17,305.87L250.14,306.88L250.11,307.88L250.1,308.88L250.1,309.89L250.13,310.89L250.17,311.89L250.22,312.89L250.25,313.9L250.27,314.9L250.25,315.9L250.21,316.91L250.15,317.91L250.08,318.91L250.04,319.91L250.02,320.92L250.04,321.92L250.1,322.92L250.17,323.93L250.24,324.93L250.28,325.93L250.28,326.93L250.24,327.94L250.17,328.94L250.09,329.94L250.01,330.95L249.96,331.95L249.92,332.95L249.92,333.95L249.93,334.96L249.96,335.96L249.99,336.96L250.02,337.97L250.03,338.97L250.01,339.97L249.98,340.97L249.93,341.98L249.88,342.98L249.85,343.98L249.85,344.99L249.87,345.99L249.9,346.99L249.93,347.99L249.95,349L249.96,350L250,349.96L249,349.97L247.99,350.01L246.99,350.08L245.98,350.17L244.98,350.27L243.98,350.36L242.97,350.42L241.97,350.45L240.96,350.45L239.96,350.41L238.96,350.36L237.95,350.3L236.95,350.25L235.94,350.21L234.94,350.18L233.94,350.17L232.93,350.16L231.93,350.16L230.92,350.16L229.92,350.17L228.92,350.18L227.91,350.17L226.91,350.15L225.9,350.11L224.9,350.08L223.9,350.05L222.89,350.02L221.89,350.01L220.88,350.01L219.88,350.01L218.88,350.01L217.87,350L216.87,349.99L215.86,349.98L214.86,349.98L213.86,349.99L212.85,350.01L211.85,350.03L210.84,350.07L209.84,350.1L208.84,350.13L207.83,350.14L206.83,350.16L205.82,350.17L204.82,350.18L203.82,350.21L202.81,350.25L201.81,350.29L200.8,350.32L199.8,350.34L198.8,350.35L197.79,350.35L196.79,350.34L195.78,350.33L194.78,350.3L193.78,350.26L192.77,350.21L191.77,350.18L190.76,350.15L189.76,350.14L188.76,350.14L187.75,350.14L186.75,350.12L185.74,350.11L184.74,350.09L183.73,350.1L182.73,350.13L181.73,350.17L180.72,350.22L179.72,350.26L178.71,350.29L177.71,350.3L176.71,350.29L175.7,350.27L174.7,350.23L173.69,350.19L172.69,350.17L171.69,350.16L170.68,350.16L169.68,350.17L168.67,350.18L167.67,350.18L166.67,350.17L165.66,350.16L164.66,350.14L163.65,350.12L162.65,350.12L161.65,350.12L160.64,350.13L159.64,350.13L158.63,350.13L157.63,350.13L156.63,350.13L155.62,350.14L154.62,350.13L153.61,350.12L152.61,350.11L151.61,350.08L150.6,350.05L149.6,350.02L148.59,350L147.59,349.98L146.59,349.96L145.58,349.94L144.58,349.92L143.57,349.89L142.57,349.87L141.57,349.84L140.56,349.81L139.56,349.78L138.55,349.76L137.55,349.74L136.55,349.73L135.54,349.72L134.54,349.72L133.53,349.73L132.53,349.73L131.53,349.73L130.52,349.72L129.52,349.72L128.51,349.73L127.51,349.74L126.51,349.77L125.5,349.81L124.5,349.86L123.49,349.9L122.49,349.93L121.49,349.97L120.48,350.01L119.48,350.07L118.47,350.14L117.47,350.2L116.47,350.23L115.46,350.22L114.46,350.16L113.45,350.07L112.45,349.97L111.45,349.87L110.44,349.81L109.44,349.78L108.43,349.79L107.43,349.84L106.43,349.9L105.42,349.98L104.42,350.05L103.41,350.11L102.41,350.14L101.41,350.16L100.4,350.15L99.4,350.13L98.39,350.09L97.39,350.05L96.39,350L95.38,349.96L94.38,349.92L93.37,349.88L92.37,349.83L91.37,349.79L90.36,349.76L89.36,349.73L88.35,349.73L87.35,349.75L86.35,349.77L85.34,349.81L84.34,349.84L83.33,349.88L82.33,349.91L81.33,349.95L80.32,349.97L79.32,349.98L78.31,349.98L77.31,349.96L76.31,349.93L75.3,349.91L74.3,349.91L73.29,349.95L72.29,350.02L71.29,350.1L70.28,350.18L69.28,350.23L68.27,350.25L67.27,350.24L66.27,350.2L65.26,350.14L64.26,350.08L63.25,350.02L62.25,349.97L61.24,349.94L60.24,349.93L59.24,349.95L58.23,350L57.23,350.07L56.22,350.16L55.22,350.23L54.22,350.27L53.21,350.28L52.21,350.27L51.2,350.23L50.2,350.2L49.2,350.17L48.19,350.15L47.19,350.13L46.18,350.12L45.18,350.1L44.18,350.07L43.17,350.03L42.17,349.99L41.16,349.95L40.16,349.91L39.16,349.89L38.15,349.89L37.15,349.9L36.14,349.94L35.14,349.98L34.14,350.02L33.13,350.06L32.13,350.09L31.12,350.1L30.12,350.1L29.12,350.1L28.11,350.12L27.11,350.16L26.1,350.22L25.1,350.3L24.1,350.39L23.09,350.45L22.09,350.47L21.08,350.44L20.08,350.36L19.08,350.26L18.07,350.15L17.07,350.04L16.06,349.96L15.06,349.9L14.06,349.89L13.05,349.91L12.05,349.96L11.04,350.01L10.04,350.04L9.04,350.06L8.03,350.06L7.03,350.03L6.02,349.98L5.02,349.91L4.02,349.85L3.01,349.8L2.01,349.77L1,349.77L0,349.81L0.12,350L0.05,349L-0.03,347.99L-0.07,346.99L-0.08,345.99L-0.06,344.99L-0.01,343.98L0.04,342.98L0.09,341.98L0.12,340.97L0.12,339.97L0.11,338.97L0.08,337.97L0.05,336.96L0.04,335.96L0.05,334.96L0.08,333.95L0.11,332.95L0.12,331.95L0.08,330.95L0.01,329.94L-0.08,328.94L-0.17,327.94L-0.23,326.93L-0.26,325.93L-0.25,324.93L-0.23,323.93L-0.2,322.92L-0.17,321.92L-0.12,320.92L-0.05,319.91L0.05,318.91L0.16,317.91L0.29,316.91L0.4,315.9L0.47,314.9L0.5,313.9L0.47,312.89L0.43,311.89L0.38,310.89L0.35,309.89L0.34,308.88L0.34,307.88L0.35,306.88L0.33,305.87L0.3,304.87L0.25,303.87L0.2,302.87L0.16,301.86L0.13,300.86L0.12,299.86L0.11,298.85L0.11,297.85L0.12,296.85L0.12,295.85L0.13,294.84L0.15,293.84L0.16,292.84L0.17,291.83L0.17,290.83L0.15,289.83L0.13,288.83L0.09,287.82L0.06,286.82L0.04,285.82L0.04,284.81L0.05,283.81L0.07,282.81L0.08,281.81L0.08,280.8L0.06,279.8L0.03,278.8L-0.01,277.79L-0.03,276.79L-0.04,275.79L-0.02,274.79L0,273.78L0.03,272.78L0.04,271.78L0.04,270.77L0.01,269.77L-0.02,268.77L-0.05,267.77L-0.07,266.76L-0.07,265.76L-0.06,264.76L-0.05,263.75L-0.06,262.75L-0.08,261.75L-0.13,260.74L-0.18,259.74L-0.22,258.74L-0.24,257.74L-0.24,256.73L-0.2,255.73L-0.14,254.73L-0.07,253.72L0.01,252.72L0.07,251.72L0.12,250.72L0.15,249.71L0.17,248.71L0.16,247.71L0.15,246.7L0.12,245.7L0.09,244.7L0.05,243.7L0.01,242.69L-0.03,241.69L-0.04,240.69L-0.04,239.68L-0.01,238.68L0.02,237.68L0.06,236.68L0.09,235.67L0.1,234.67L0.11,233.67L0.11,232.66L0.11,231.66L0.12,230.66L0.14,229.66L0.16,228.65L0.17,227.65L0.18,226.65L0.18,225.64L0.18,224.64L0.17,223.64L0.16,222.64L0.14,221.63L0.12,220.63L0.08,219.63L0.05,218.62L0.04,217.62L0.05,216.62L0.08,215.62L0.13,214.61L0.19,213.61L0.23,212.61L0.25,211.6L0.23,210.6L0.2,209.6L0.16,208.6L0.12,207.59L0.09,206.59L0.05,205.59L0.01,204.58L-0.05,203.58L-0.12,202.58L-0.18,201.58L-0.22,200.57L-0.24,199.57L-0.24,198.57L-0.22,197.56L-0.2,196.56L-0.18,195.56L-0.18,194.56L-0.19,193.55L-0.18,192.55L-0.16,191.55L-0.13,190.54L-0.09,189.54L-0.07,188.54L-0.06,187.54L-0.08,186.53L-0.11,185.53L-0.14,184.53L-0.16,183.52L-0.16,182.52L-0.15,181.52L-0.12,180.52L-0.1,179.51L-0.11,178.51L-0.13,177.51L-0.18,176.5L-0.22,175.5L-0.25,174.5L-0.25,173.5L-0.21,172.49L-0.16,171.49L-0.11,170.49L-0.06,169.48L-0.03,168.48L0,167.48L0.02,166.48L0.04,165.47L0.06,164.47L0.07,163.47L0.07,162.46L0.06,161.46L0.03,160.46L-0.03,159.46L-0.09,158.45L-0.16,157.45L-0.22,156.45L-0.27,155.44L-0.29,154.44L-0.28,153.44L-0.25,152.44L-0.21,151.43L-0.16,150.43L-0.1,149.43L-0.05,148.42L0.01,147.42L0.08,146.42L0.13,145.42L0.19,144.41L0.23,143.41L0.27,142.41L0.28,141.4L0.27,140.4L0.24,139.4L0.2,138.4L0.14,137.39L0.07,136.39L0.02,135.39L-0.03,134.38L-0.06,133.38L-0.08,132.38L-0.09,131.38L-0.1,130.37L-0.12,129.37L-0.13,128.37L-0.12,127.36L-0.09,126.36L-0.04,125.36L0.01,124.36L0.06,123.35L0.09,122.35L0.1,121.35L0.1,120.34L0.09,119.34L0.1,118.34L0.11,117.34L0.13,116.33L0.15,115.33L0.15,114.33L0.14,113.32L0.12,112.32L0.1,111.32L0.08,110.32L0.07,109.31L0.06,108.31L0.04,107.31L0,106.3L-0.05,105.3L-0.11,104.3L-0.16,103.3L-0.21,102.29L-0.25,101.29L-0.27,100.29L-0.29,99.28L-0.31,98.28L-0.31,97.28L-0.31,96.28L-0.28,95.27L-0.23,94.27L-0.16,93.27L-0.07,92.26L0.02,91.26L0.11,90.26L0.17,89.26L0.2,88.25L0.19,87.25L0.15,86.25L0.09,85.24L0.03,84.24L-0.01,83.24L-0.04,82.23L-0.04,81.23L-0.01,80.23L0.04,79.23L0.11,78.22L0.17,77.22L0.22,76.22L0.25,75.21L0.28,74.21L0.29,73.21L0.29,72.21L0.27,71.2L0.23,70.2L0.16,69.2L0.06,68.19L-0.04,67.19L-0.13,66.19L-0.2,65.19L-0.27,64.18L-0.32,63.18L-0.36,62.18L-0.39,61.17L-0.4,60.17L-0.37,59.17L-0.32,58.17L-0.23,57.16L-0.13,56.16L-0.03,55.16L0.06,54.15L0.14,53.15L0.2,52.15L0.23,51.15L0.23,50.14L0.21,49.14L0.17,48.14L0.12,47.13L0.07,46.13L0.03,45.13L0.01,44.13L-0.01,43.12L-0.03,42.12L-0.06,41.12L-0.09,40.11L-0.11,39.11L-0.12,38.11L-0.11,37.11L-0.09,36.1L-0.07,35.1L-0.06,34.1L-0.05,33.09L-0.04,32.09L-0.02,31.09L0.02,30.09L0.07,29.08L0.12,28.08L0.17,27.08L0.19,26.07L0.19,25.07L0.15,24.07L0.09,23.07L0.01,22.06L-0.08,21.06L-0.17,20.06L-0.25,19.05L-0.3,18.05L-0.33,17.05L-0.35,16.05L-0.35,15.04L-0.35,14.04L-0.35,13.04L-0.33,12.03L-0.3,11.03L-0.26,10.03L-0.2,9.03L-0.13,8.02L-0.06,7.02L0.01,6.02L0.06,5.01L0.1,4.01L0.14,3.01L0.16,2.01L0.17,1L0.17,0"></path></g></g></g></g><g class="cmx-layer cmx-layer-0"><g class="cmx-entity-tree"><g class="cmx-back"><g class="cmx-entity cmx-label" transform="translate(0,346)"><g transform="translate ( 0,0)"><g><g transform="scale(1, -1)"><text class="cmx-text">
            <tspan x="0" y="0em">how are you?</tspan>
        </text><g class="cmx-text-border"><path class="cmx-path" d="M-8,-15.74L-6.99,-15.77L-5.98,-15.81L-4.97,-15.84L-3.96,-15.86L-2.95,-15.87L-1.94,-15.86L-0.93,-15.85L0.08,-15.84L1.1,-15.85L2.11,-15.88L3.12,-15.92L4.13,-15.97L5.14,-16.01L6.15,-16.02L7.16,-16L8.17,-15.95L9.18,-15.9L10.19,-15.85L11.2,-15.83L12.21,-15.85L13.22,-15.89L14.23,-15.93L15.24,-15.94L16.25,-15.93L17.26,-15.88L18.27,-15.82L19.29,-15.77L20.3,-15.75L21.31,-15.76L22.32,-15.81L23.33,-15.88L24.34,-15.94L25.35,-15.99L26.36,-16.01L27.37,-16.03L28.38,-16.04L29.39,-16.05L30.4,-16.07L31.41,-16.09L32.42,-16.1L33.43,-16.11L34.44,-16.11L35.45,-16.11L36.47,-16.12L37.48,-16.14L38.49,-16.15L39.5,-16.17L40.51,-16.17L41.52,-16.16L42.53,-16.13L43.54,-16.1L44.55,-16.07L45.56,-16.06L46.57,-16.05L47.58,-16.05L48.59,-16.05L49.6,-16.05L50.61,-16.03L51.62,-16L52.63,-15.96L53.65,-15.92L54.66,-15.89L55.67,-15.86L56.68,-15.85L57.69,-15.84L58.7,-15.84L59.71,-15.85L60.72,-15.88L61.73,-15.91L62.74,-15.94L63.75,-15.96L64.76,-15.96L65.77,-15.95L66.78,-15.94L67.79,-15.92L68.8,-15.9L69.81,-15.9L70.82,-15.91L71.84,-15.93L72.85,-15.95L73.86,-15.96L74.87,-15.96L75.88,-15.95L76.89,-15.92L77.9,-15.9L78.91,-15.88L79.92,-15.88L80.93,-15.89L81.94,-15.93L82.95,-15.98L83.96,-16.04L84.97,-16.09L85.98,-16.12L86.99,-16.13L88,-16.12L89.02,-16.11L90.03,-16.11L91.04,-16.12L92.05,-16.14L92.21,-16L92.22,-14.95L92.21,-13.9L92.17,-12.86L92.12,-11.81L92.06,-10.76L92.01,-9.71L91.97,-8.67L91.93,-7.62L91.9,-6.57L91.87,-5.52L91.85,-4.48L91.83,-3.43L91.84,-2.38L91.87,-1.33L91.92,-0.29L91.97,0.76L92.02,1.81L92.06,2.86L92.08,3.9L92.09,4.95L92.1,6L92.05,6.07L91.04,6.1L90.03,6.13L89.02,6.15L88,6.16L86.99,6.14L85.98,6.11L84.97,6.07L83.96,6.02L82.95,5.96L81.94,5.89L80.93,5.83L79.92,5.79L78.91,5.78L77.9,5.79L76.89,5.83L75.88,5.88L74.87,5.92L73.86,5.95L72.85,5.96L71.84,5.96L70.82,5.97L69.81,5.99L68.8,6.04L67.79,6.09L66.78,6.14L65.77,6.18L64.76,6.2L63.75,6.2L62.74,6.17L61.73,6.12L60.72,6.07L59.71,6L58.7,5.94L57.69,5.88L56.68,5.83L55.67,5.8L54.66,5.77L53.65,5.75L52.63,5.74L51.62,5.74L50.61,5.75L49.6,5.79L48.59,5.85L47.58,5.91L46.57,5.97L45.56,6.02L44.55,6.06L43.54,6.09L42.53,6.12L41.52,6.15L40.51,6.16L39.5,6.15L38.49,6.12L37.48,6.07L36.47,5.99L35.45,5.9L34.44,5.81L33.43,5.74L32.42,5.69L31.41,5.67L30.4,5.68L29.39,5.71L28.38,5.74L27.37,5.77L26.36,5.78L25.35,5.77L24.34,5.75L23.33,5.73L22.32,5.72L21.31,5.73L20.3,5.76L19.29,5.8L18.27,5.85L17.26,5.9L16.25,5.94L15.24,5.96L14.23,5.96L13.22,5.94L12.21,5.91L11.2,5.88L10.19,5.87L9.18,5.87L8.17,5.9L7.16,5.93L6.15,5.95L5.14,5.95L4.13,5.92L3.12,5.88L2.11,5.84L1.1,5.81L0.08,5.79L-0.93,5.79L-1.94,5.79L-2.95,5.79L-3.96,5.79L-4.97,5.8L-5.98,5.82L-6.99,5.84L-8,5.88Z"></path></g></g></g></g></g></g><g class="cmx-front"><g class="cmx-entity cmx-label" transform="translate(0,346)"><g transform="translate ( 0,0)"><g><g transform="scale(1, -1)"><text class="cmx-text">
            <tspan x="0" y="0em">how are you?</tspan>
        </text></g></g></g></g></g></g><g class="cmx-entity-tree"><g class="cmx-back"><g class="cmx-entity cmx-drawing" transform="translate(0,31)"></g></g><g class="cmx-front"><g class="cmx-entity cmx-drawing" transform="translate(0,31)"></g></g></g><g class="cmx-entity-tree"><g class="cmx-back"><g class="cmx-entity cmx-actor" transform="translate(71,19) rotate(-2)"><g class="cmx-entity cmx-bubble" transform="translate(-5,117)translate(9,11)"></g></g></g><g class="cmx-front"><g class="cmx-entity cmx-actor" transform="translate(71,19) rotate(-2)"><g class="cmx-entity cmx-bubble" transform="translate(-5,117)translate(9,11)"></g></g></g></g><g class="cmx-entity-tree"><g class="cmx-back"><g class="cmx-entity cmx-actor" transform="translate(159,15)"><g class="cmx-entity cmx-bubble" transform="translate(30,109)translate(-2,-9)"></g></g></g><g class="cmx-front"><g class="cmx-entity cmx-actor" transform="translate(159,15)"><g class="cmx-entity cmx-bubble" transform="translate(30,109)translate(-2,-9)"></g></g></g></g></g></g></g></g></svg>
